<?xml version="1.0" ?><svg id="Layer_1" style="enable-background:new 0 0 512 512;" version="1.1" viewBox="0 0 512 512" xml:space="preserve" xmlns="http://www.w3.org/2000/svg" xmlns:xlink="http://www.w3.org/1999/xlink"><style type="text/css">
	.st0{fill:#232020;}
</style><g><path class="st0" d="M453.1,314.4L400.7,198l-56.8,25.5l3.8,8.5c-12.1,3.9-25.4,4.8-38.9,2.6c-8.8-1.4-17.7-1.4-26.4,0   c-6.9,1.1-13.8,3.2-20.3,6.1c-3,1.3-5.9,2.9-8.8,4.7l-25.3,12.4c-3.9-0.7-7.8-1.2-11.7-1.4c-13.8-0.6-26.8-4.2-38-10.5l5.4-7.4   L133,202.1L58.4,305.7l50.5,36.4l5.4-7.4c9.6,8.6,17.1,19.8,22,32.7c0.4,1.1,0.8,2.1,1.3,3.2l-6.4,8.8c-6.4,8.9-4.4,21.4,4.5,27.8   c2.9,2.1,6.1,3.2,9.4,3.6c0,1,0.1,2,0.2,3c0.9,5.2,3.7,9.8,8,13c3.4,2.5,7.5,3.8,11.6,3.8c0.6,0,1.1,0,1.7-0.1   c1.1,4.6,3.8,8.6,7.7,11.4c3.5,2.5,7.6,3.8,11.6,3.8c2.1,0,4.2-0.3,6.2-1c1.4,3.1,3.6,5.8,6.4,7.8c3.4,2.5,7.5,3.8,11.6,3.8   c1.1,0,2.2-0.1,3.2-0.3c5.3-0.9,9.9-3.7,13-8l4-5.6l19.1,11c3.4,2,7.2,2.9,10.8,2.9c5.9,0,11.6-2.4,15.6-7c2.2-2.6,3.8-5.6,4.6-8.9   c3.9,1.3,8,1.6,12.2,0.9c6.8-1.1,12.7-4.8,16.7-10.4c2.6-3.7,4.3-8,4.7-12.4c0.2-2,0.2-4-0.1-5.9c7-0.4,13.7-3.5,18.3-9.1   c3.9-4.7,5.9-10.4,5.9-16.4c1.5,0.1,2.9,0,4.4-0.3c5.5-0.9,10.3-3.9,13.5-8.4c2.7-3.8,4.4-8.2,4.9-12.9c0-0.2,0-0.5,0.1-0.7   c1.4-1.8,2.7-3.7,3.9-5.6c7.3-11.6,16.8-20.9,27.7-27.4l3.7,8.1L453.1,314.4z M434.6,307.4l-31.2,14l-40.9-90.9l31.2-14   L434.6,307.4z M136.2,221.7l27.8,20l-54.8,76l-3.5,4.9l-27.8-20L136.2,221.7z M142.6,387.6l8.7-12.1l0.5-0.7   c0.2-0.3,0.5-0.6,0.7-0.8c0,0,0,0,0,0c0.3-0.2,0.5-0.5,0.8-0.6c0,0,0.1,0,0.1-0.1c0.3-0.2,0.6-0.3,0.9-0.5c0,0,0.1,0,0.1,0   c0.3-0.1,0.7-0.2,1.1-0.3c0,0,0.1,0,0.1,0c0.2,0,0.5-0.1,0.7-0.1c0.1,0,0.2,0,0.2,0c0.2,0,0.5,0,0.7,0.1c0.1,0,0.2,0,0.3,0   c0.2,0,0.4,0.1,0.6,0.1c0.1,0,0.1,0,0.2,0.1c0.2,0.1,0.5,0.2,0.7,0.3c0.1,0,0.1,0.1,0.2,0.1c0.2,0.1,0.5,0.3,0.7,0.4   c1.5,1.1,2.4,2.8,2.4,4.6c0,0.3,0,0.5,0,0.8c0,0.3-0.1,0.6-0.1,0.8c-0.2,0.7-0.5,1.4-0.9,2l-9.2,12.8c-1.9,2.6-5.6,3.2-8.2,1.3   C141.3,393.9,140.7,390.2,142.6,387.6z M161.6,415.4c-1.3-0.9-2.1-2.3-2.4-3.8c-0.3-1.6,0.1-3.1,1-4.4l20.6-28.6   c0.9-1.3,2.3-2.1,3.8-2.4c0.3,0,0.6-0.1,0.9-0.1c0,0,0.1,0,0.1,0c0.3,0,0.5,0,0.8,0.1c0,0,0.1,0,0.1,0c0.2,0,0.5,0.1,0.7,0.2   c0,0,0.1,0,0.1,0c0.3,0.1,0.5,0.2,0.7,0.3c0.1,0,0.1,0.1,0.2,0.1c0.2,0.1,0.5,0.3,0.7,0.4c1.3,0.9,2.1,2.3,2.4,3.8   c0.1,0.5,0.1,1,0,1.6c0,0.4-0.1,0.9-0.3,1.3c0,0.1,0,0.2-0.1,0.2c-0.1,0.1-0.1,0.3-0.2,0.4c0,0.1-0.1,0.2-0.1,0.3   c-0.1,0.1-0.2,0.3-0.2,0.4c-0.1,0.1-0.1,0.2-0.2,0.3c0,0,0,0,0,0l0,0c0,0,0,0,0,0l-20.6,28.6c-0.9,1.3-2.3,2.1-3.8,2.4   C164.4,416.7,162.8,416.4,161.6,415.4z M182.5,430.5c-1.3-0.9-2.1-2.3-2.4-3.8c-0.3-1.6,0.1-3.1,1-4.4l20.6-28.6c0,0,0,0,0,0   c0,0,0,0,0,0c0.2-0.3,0.4-0.5,0.7-0.8c0.1-0.1,0.1-0.1,0.2-0.2c0.2-0.2,0.5-0.4,0.8-0.6c0.1,0,0.1-0.1,0.2-0.1   c0.2-0.1,0.5-0.3,0.8-0.4c0.1,0,0.1,0,0.2-0.1c0.3-0.1,0.6-0.2,1-0.3c0.1,0,0.2,0,0.3-0.1c0.1,0,0.1,0,0.2,0c0.2,0,0.3,0,0.5,0   c0,0,0.1,0,0.1,0c0.3,0,0.6,0,0.8,0.1c0,0,0,0,0.1,0c0.3,0,0.5,0.1,0.8,0.2c0,0,0.1,0,0.1,0c0.3,0.1,0.5,0.2,0.8,0.3   c0,0,0.1,0,0.1,0.1c0.2,0.1,0.5,0.3,0.7,0.4c0.4,0.3,0.8,0.7,1.1,1.1c0.8,1,1.3,2.2,1.3,3.5c0,0.3,0,0.5,0,0.8   c-0.1,0.5-0.2,1-0.3,1.5c0,0,0,0,0,0c0,0.1-0.1,0.1-0.1,0.2c-0.2,0.4-0.4,0.8-0.6,1.2l-20.6,28.6   C188.8,431.8,185.1,432.4,182.5,430.5z M211.1,442.1c-1.6,0.3-3.1-0.1-4.4-1c-1.3-0.9-2.1-2.3-2.4-3.8c-0.3-1.6,0.1-3.1,1-4.4   l9.2-12.8l0,0l0,0c0.1-0.2,0.3-0.3,0.4-0.4c0.1-0.1,0.3-0.3,0.4-0.4c0.1-0.1,0.3-0.2,0.5-0.4c0.1-0.1,0.3-0.2,0.4-0.3   c0.2-0.1,0.4-0.2,0.6-0.3c0.1-0.1,0.3-0.1,0.4-0.2c0.4-0.1,0.7-0.2,1.1-0.3c0.3,0,0.6-0.1,0.9-0.1c0.1,0,0.1,0,0.2,0   c0.3,0,0.5,0,0.8,0.1c0.1,0,0.1,0,0.2,0c0.2,0,0.5,0.1,0.7,0.2c0,0,0.1,0,0.1,0c0.2,0.1,0.5,0.2,0.7,0.3c0.1,0,0.1,0.1,0.2,0.1   c0.2,0.1,0.5,0.3,0.7,0.4c1.7,1.2,2.6,3.3,2.4,5.4c-0.1,1-0.5,2-1.1,2.9l-9.2,12.8C214,441,212.7,441.9,211.1,442.1z M347,364.1   c-0.2,2.2-1,4.3-2.3,6.1c-1.1,1.5-2.6,2.4-4.4,2.7c-1.8,0.3-3.6-0.1-5-1.2l-7.8-5.6l0,0c0,0,0,0,0,0l-15.3-11   c-3.1-2.3-7.5-1.5-9.8,1.6c-2.3,3.1-1.5,7.5,1.6,9.8l15.3,11c0,0,0,0,0,0c2.6,1.9,4.3,4.8,4.8,8c0.4,3.2-0.5,6.4-2.6,9   c-3.8,4.7-11.2,5.4-16.4,1.7l-1.5-1.1c0,0-0.1-0.1-0.1-0.1l0,0l-18.9-13.6c-3.1-2.3-7.5-1.5-9.8,1.6c-2.3,3.1-1.5,7.5,1.6,9.8   l18.9,13.6c0,0,0,0,0,0l0,0c3.3,2.4,5.1,6.5,4.7,10.7c-0.2,2.1-0.9,4-2.1,5.6c-1.8,2.5-4.5,4.2-7.6,4.7c-3.1,0.5-6.2-0.2-8.7-2.1   l-9.2-6.6c0,0-0.1,0-0.1-0.1l-17.9-12.9c-3.1-2.3-7.5-1.5-9.8,1.6c-2.3,3.1-1.5,7.5,1.6,9.8l17.9,12.9l0,0l0,0   c1.6,1.1,2.5,2.8,2.7,4.7c0.2,1.9-0.4,3.8-1.6,5.3c-2.1,2.4-5.8,2.9-8.9,1.1L238,430.6c0,0,0,0,0,0c0.1-0.3,0.2-0.5,0.3-0.8   c0-0.1,0.1-0.3,0.1-0.4c0.1-0.3,0.2-0.6,0.2-0.9c0-0.1,0.1-0.2,0.1-0.3c0.1-0.3,0.1-0.7,0.2-1c0-0.1,0-0.2,0.1-0.3   c0.1-0.4,0.1-0.9,0.2-1.3c0.7-7.1-2.4-14-8.2-18.2c-0.5-0.4-1-0.7-1.5-1c-0.2-0.1-0.3-0.2-0.5-0.3c-0.4-0.2-0.7-0.4-1.1-0.6   c-0.2-0.1-0.4-0.2-0.6-0.3c-0.4-0.2-0.7-0.3-1.1-0.4c-0.2-0.1-0.4-0.2-0.6-0.2c-0.1,0-0.3-0.1-0.4-0.1c0,0,0-0.1,0-0.1   c0.1-0.2,0.2-0.5,0.3-0.7c0.1-0.2,0.1-0.3,0.2-0.5c0.1-0.3,0.2-0.5,0.2-0.8c0-0.2,0.1-0.3,0.1-0.5c0.1-0.3,0.1-0.6,0.2-0.9   c0-0.1,0.1-0.3,0.1-0.4c0.1-0.4,0.1-0.9,0.2-1.3v0c0.7-7.1-2.4-14-8.2-18.2c-0.5-0.4-1.1-0.7-1.6-1c-0.2-0.1-0.3-0.2-0.5-0.3   c-0.4-0.2-0.8-0.4-1.2-0.6c-0.2-0.1-0.3-0.1-0.5-0.2c-0.4-0.2-0.8-0.3-1.3-0.5c-0.2-0.1-0.3-0.1-0.5-0.2c-0.5-0.1-0.9-0.3-1.4-0.4   c-0.1,0-0.3-0.1-0.4-0.1c-0.5-0.1-1-0.2-1.5-0.3c-0.1,0-0.2,0-0.3,0c-0.5-0.1-1.1-0.1-1.6-0.1c-0.1,0-0.2,0-0.2,0   c-0.6,0-1.2,0-1.7,0c0,0-0.1,0-0.1,0c-0.1,0-0.2,0-0.3,0c0-0.1-0.1-0.2-0.1-0.3c-0.1-0.4-0.2-0.8-0.3-1.2c0-0.2-0.1-0.3-0.2-0.5   c-0.1-0.4-0.3-0.8-0.5-1.2c0-0.1-0.1-0.2-0.1-0.3c-0.2-0.5-0.4-0.9-0.7-1.4c-0.1-0.1-0.1-0.2-0.2-0.4c-0.2-0.3-0.4-0.7-0.6-1   c-0.1-0.1-0.2-0.3-0.3-0.4c-0.3-0.4-0.5-0.8-0.8-1.1c0,0-0.1-0.1-0.1-0.1c-0.3-0.4-0.7-0.8-1-1.2c-0.1-0.1-0.2-0.2-0.3-0.3   c-0.3-0.3-0.6-0.6-0.9-0.8c-0.1-0.1-0.2-0.2-0.4-0.3c-0.4-0.3-0.8-0.7-1.3-1c-4.3-3.1-9.6-4.4-14.8-3.5c-0.6,0.1-1.2,0.2-1.7,0.4   c-0.1,0-0.3,0.1-0.4,0.1c-0.5,0.1-1,0.3-1.5,0.5c-0.1,0-0.1,0-0.2,0.1c-0.5,0.2-1.1,0.4-1.6,0.7c-0.1,0.1-0.3,0.1-0.4,0.2   c-0.4,0.2-0.9,0.5-1.3,0.7c-0.1,0.1-0.2,0.1-0.3,0.1c-0.5,0.3-0.9,0.6-1.4,1c-0.1,0.1-0.2,0.2-0.3,0.3c-0.2,0.1-0.3,0.3-0.5,0.4   c0,0,0,0,0,0c-0.3-0.4-0.6-0.8-0.9-1.2c-0.1-0.1-0.2-0.2-0.3-0.3c-0.2-0.3-0.5-0.6-0.7-0.8c-0.1-0.1-0.2-0.2-0.4-0.4   c-0.3-0.3-0.5-0.5-0.8-0.7c-0.1-0.1-0.2-0.2-0.4-0.3c-0.4-0.3-0.8-0.6-1.2-0.9c-0.5-0.3-1-0.7-1.5-0.9c-0.1-0.1-0.3-0.2-0.4-0.3   c-0.4-0.2-0.8-0.4-1.2-0.6c-0.1-0.1-0.3-0.1-0.4-0.2c-0.5-0.2-0.9-0.4-1.4-0.6c-0.2-0.1-0.5-0.2-0.7-0.2c-0.3-0.1-0.5-0.2-0.8-0.2   c-0.4-0.1-0.9-0.2-1.3-0.3c-0.3-0.1-0.5-0.1-0.8-0.1c-0.3,0-0.6-0.1-0.9-0.1c-0.2,0-0.5,0-0.7-0.1c-0.4,0-0.9,0-1.3,0   c-0.3,0-0.7,0-1,0c-0.3,0-0.5,0-0.8,0.1c-0.4,0-0.8,0.1-1.1,0.1c-0.1,0-0.3,0-0.4,0c-0.1,0-0.2,0-0.3,0.1c-0.4,0.1-0.8,0.2-1.3,0.3   c-0.2,0.1-0.5,0.1-0.7,0.2c-0.4,0.1-0.8,0.2-1.1,0.4c-0.3,0.1-0.6,0.2-0.9,0.3c-0.2,0.1-0.4,0.2-0.7,0.3   c-5.9-14.6-14.8-27.1-26-36.8l47.5-65.9c9.4,5.6,19.9,9.5,31.1,11.5l-6,59.1c-0.9,8.9,5.6,16.8,14.4,17.7   c8.3,0.8,16.3-1.6,22.7-6.8c6.4-5.2,10.4-12.7,11.3-20.9l1.6-15.5c8.1-0.3,16-2.7,23-6.8l74.1,57.2c0.5,0.4,0.8,0.7,1.1,0.9   l0.1,0.1c0.1,0.1,0.3,0.3,0.4,0.4l0.2,0.2c0.1,0.1,0.1,0.2,0.2,0.2l0.2,0.2c0.1,0.1,0.2,0.2,0.3,0.3l0.6,0.9   c0.3,0.4,0.5,0.8,0.6,1.1l0.1,0.2c0.1,0.2,0.2,0.3,0.2,0.5c0.1,0.2,0.2,0.4,0.2,0.6c0.1,0.2,0.1,0.4,0.2,0.6l0.2,0.6   c0.1,0.5,0.2,1,0.3,1.4l0,0.2c0,0.2,0,0.4,0.1,0.6c0,0,0,0.1,0,0.1l0,0l0,0.5v0C347.1,363.1,347.1,363.6,347,364.1L347,364.1z    M356.1,347.3l-0.1-0.2c0,0,0,0,0,0l0,0c-0.3-0.4-0.5-0.7-0.7-0.9c0,0,0-0.1-0.1-0.1c-0.1-0.1-0.2-0.2-0.3-0.4   c-0.1-0.1-0.1-0.1-0.2-0.2c-0.2-0.2-0.3-0.4-0.5-0.6c-0.3-0.4-0.7-0.7-1-1c0,0,0,0,0,0s0,0,0,0c-0.1-0.1-0.2-0.2-0.3-0.3   c-0.1-0.1-0.1-0.1-0.2-0.2c-0.1-0.1-0.1-0.1-0.2-0.2c-0.5-0.4-1-0.9-1.7-1.4l-82.4-63.6l-4.3,3.2c-7.1,5.3-15.8,7.8-24.7,6.9   l-7-0.7l-2.9,28.9c-0.5,4.5-2.7,8.6-6.2,11.5c-3.5,2.9-8,4.2-12.5,3.7c-1.2-0.1-2-1.2-1.9-2.3l5-49.1l35.8-17.6l0,0l9.9-4.9   l0.6-0.3c2.6-1.6,5.1-2.9,7.6-4c5.4-2.4,11.1-4.2,16.8-5.1c7.2-1.2,14.6-1.2,21.9,0c16.2,2.7,32.3,1.4,46.9-3.5l33.3,74.1   C374.9,325.8,364.4,335.4,356.1,347.3z"/><path class="st0" d="M259,110.4c-1.7-1-3.8-0.4-4.8,1.3l-18,31.1c-1,1.7-0.4,3.8,1.3,4.8c0.6,0.3,1.2,0.5,1.7,0.5   c1.2,0,2.4-0.6,3-1.8l18-31.1C261.3,113.5,260.7,111.4,259,110.4z"/><ellipse class="st0" cx="239.3" cy="117.3" rx="5.1" ry="5.1" transform="matrix(0.7071 -0.7071 0.7071 0.7071 -12.8241 203.5469)"/><circle class="st0" cx="257.2" cy="140.8" r="5.1"/><path class="st0" d="M411.1,312c0.4,0,0.7,0.1,1.1,0.1c2.4,0,4.7-0.8,6.5-2.3c2.1-1.8,3.5-4.2,3.8-7c0.3-2.8-0.5-5.5-2.3-7.6   c-1.8-2.1-4.2-3.5-7-3.8c-2.8-0.3-5.5,0.5-7.6,2.3c-2.1,1.8-3.5,4.2-3.8,7C401.3,306.4,405.5,311.5,411.1,312z M408.8,301.4   c0.1-0.9,0.5-1.7,1.2-2.3c0.6-0.5,1.3-0.8,2.1-0.8c0.1,0,0.2,0,0.3,0c0.9,0.1,1.7,0.5,2.3,1.2c0.6,0.7,0.8,1.6,0.7,2.5v0   c-0.1,0.9-0.5,1.7-1.2,2.3c-0.7,0.6-1.6,0.8-2.5,0.7C410,304.9,408.7,303.2,408.8,301.4z"/><path class="st0" d="M110.3,301L110.3,301c0.6-5.7-3.6-10.8-9.3-11.4c-2.8-0.3-5.5,0.5-7.6,2.3c-2.1,1.8-3.5,4.2-3.8,7   c-0.6,5.7,3.6,10.8,9.3,11.4c0.4,0,0.7,0.1,1.1,0.1C105.3,310.3,109.8,306.3,110.3,301z M96.7,299.6c0.1-0.9,0.5-1.7,1.2-2.3   c0.6-0.5,1.3-0.8,2.1-0.8c0.1,0,0.2,0,0.3,0c1.8,0.2,3.2,1.8,3,3.7c-0.2,1.8-1.8,3.2-3.7,3C97.8,303.1,96.5,301.5,96.7,299.6z"/><path class="st0" d="M336,137.1h-29.2V55.8h-117v81.3h-29.3l87.8,96.6L336,137.1z M192.1,151.1h5.1h6.5h4.3c3.9,0,7-3.1,7-7   s-3.1-7-7-7h-4.3V69.8h89v67.3h-4.3c-3.9,0-7,3.1-7,7s3.1,7,7,7h4.3h6.5h5.1l-56.1,61.8L192.1,151.1z"/></g></svg>