<?xml version="1.0" ?><svg enable-background="new 0 0 500 500" id="Layer_1" version="1.1" viewBox="0 0 500 500" xml:space="preserve" xmlns="http://www.w3.org/2000/svg" xmlns:xlink="http://www.w3.org/1999/xlink"><g><g><g><path d="M250.5,428.4c-7.5,0-14.9-0.5-22.2-1.4l3.4-27.2c6.2,0.8,12.5,1.2,18.8,1.2V428.4z"/></g><g><path d="M183.1,415.2c-14.4-5.9-28-13.7-40.5-23.2l16.6-21.8c10.5,8,22,14.6,34.2,19.6L183.1,415.2z M109.6,359.2     c-9.5-12.4-17.4-25.9-23.4-40.3l25.3-10.6c5.1,12.2,11.7,23.6,19.8,34.1L109.6,359.2z M74.1,273.9c-1-7.7-1.5-15.6-1.5-23.4     c0-7.8,0.5-15.6,1.5-23.2l27.1,3.5c-0.8,6.5-1.3,13.1-1.3,19.7c0,6.6,0.4,13.3,1.3,19.8L74.1,273.9z M111.4,192.7l-25.3-10.5     c6-14.4,13.8-28,23.4-40.3l21.7,16.7C123.1,169.1,116.5,180.6,111.4,192.7z M159.2,130.8L142.6,109c12.4-9.5,26-17.3,40.4-23.2     l10.4,25.3C181.2,116.1,169.7,122.8,159.2,130.8z"/></g><g><path d="M231.7,101.1l-3.4-27.2c7.3-0.9,14.8-1.4,22.2-1.4v27.4C244.2,99.9,237.9,100.3,231.7,101.1z"/></g></g><g><path d="M250.5,428.4c-41.1,0-81.3-14.4-113-40.5l17.4-21.1c26.8,22.1,60.8,34.2,95.6,34.2c83,0,150.6-67.5,150.6-150.6    S333.5,99.9,250.5,99.9V72.6c98.1,0,177.9,79.8,177.9,177.9S348.6,428.4,250.5,428.4z"/></g><g><path d="M234.4,222.3c0,15.3-3,26.9-8.9,34.6c-5.9,7.7-14.6,11.6-26.1,11.6c-11,0-19.5-4-25.5-11.9c-6-7.9-9-19.3-9-34.3    c0-30.5,11.5-45.7,34.5-45.7c11.3,0,19.9,3.9,26,11.9C231.4,196.3,234.4,207.6,234.4,222.3z M190.1,222.5c0,8.5,0.8,14.8,2.3,19    c1.5,4.2,3.9,6.2,7.3,6.2c6.4,0,9.6-8.4,9.6-25.2c0-16.7-3.2-25-9.6-25c-3.3,0-5.8,2.1-7.3,6.2C190.8,207.7,190.1,214,190.1,222.5    z M303.3,178.6l-81.2,146.3h-24l81.2-146.3H303.3z M336.9,280.7c0,15.3-3,26.8-8.9,34.5c-5.9,7.7-14.6,11.6-26.1,11.6    c-11,0-19.5-4-25.5-11.9c-6-7.9-9-19.3-9-34.2c0-30.5,11.5-45.7,34.5-45.7c11.3,0,19.9,3.9,26,11.9    C333.9,254.7,336.9,266,336.9,280.7z M292.6,280.9c0,8.5,0.7,14.8,2.3,19c1.5,4.2,3.9,6.3,7.3,6.3c6.4,0,9.6-8.4,9.6-25.2    c0-16.7-3.2-25-9.6-25c-3.3,0-5.8,2.1-7.3,6.2C293.3,266.2,292.6,272.4,292.6,280.9z"/></g></g></svg>